<svg xmlns="http://www.w3.org/2000/svg" viewBox="0 0 128.68457 38.55664"><g id="Layer_2" data-name="Layer 2"><g id="Layer_1-2" data-name="Layer 1"><path d="M2.33105,1.8501A2.09839,2.09839,0,0,0,1.18408,0H9.13965V.03711A4.54433,4.54433,0,0,0,7.99219,2.8125v27.752A8.00617,8.00617,0,0,1,0,38.55664c1.92383-.85107,2.33105-3.293,2.33105-4.69922Z" fill="#231f20"/><path d="M28.67578,19.8335c0,6.36425-4.18115,11.50781-9.32422,11.50781-5.14355,0-9.2876-5.14356-9.2876-11.50781,0-6.32764,4.14405-11.47071,9.2876-11.47071C24.49463,8.36279,28.67578,13.50586,28.67578,19.8335Zm-5.624.03711c0-6.03174-1.665-10.95313-3.7002-10.95313S15.688,13.83887,15.688,19.87061c0,6.03125,1.62842,10.91552,3.66357,10.91552S23.05176,25.90186,23.05176,19.87061Z" fill="#231f20"/><path d="M50.28418,29.4541c.9248,0,1.18359-1.44287,1.18359-1.44287,0,.11084.03711.22168.03711.36963,0,1.03613-.51758,2.77539-3.92187,2.77539-3.36719,0-3.81153-2.92334-3.84863-4.10742V24.38477c-1.03614,3.95947-3.44141,7.03076-6.2168,7.03076-3.73731,0-6.771-5.32862-6.771-11.54492V11.43408a4.54663,4.54663,0,0,0-1.147-2.77539V8.62158H34.04a2.385,2.385,0,0,1,2.36816,2.36817l-.03711,8.95459c0,4.0332.85059,8.21484,3.47754,8.21484h.22266c1.998-.22217,3.66309-4.07031,3.66309-8.21484V11.43408a4.54149,4.54149,0,0,0-1.14747-2.77539V8.62158H49.3584V26.457s0,2.7749.6289,2.96A.81711.81711,0,0,0,50.28418,29.4541Z" fill="#231f20"/><path d="M65.52734,8.36279a4.1407,4.1407,0,0,1,4.07032,4.25537,4.32434,4.32434,0,0,1-1.48047,3.293,9.2775,9.2775,0,0,1-2.66406,1.665A4.76454,4.76454,0,0,0,65.9707,15.356c0-1.998-1.2207-3.73682-2.84863-3.73682h-.22266c-2.03515.22168-3.70019,4.06982-3.70019,8.21436v8.51074a4.38282,4.38282,0,0,0,1.18457,2.7749H52.42773A2.01569,2.01569,0,0,0,53.5752,29.269V12.877a1.35032,1.35032,0,0,0-.333-.85107,1.33177,1.33177,0,0,0-.81446-.333,32.489,32.489,0,0,0,6.77149-3.07129v6.8086c1.03613-3.95948,3.44141-7.06739,6.2168-7.06739Z" fill="#231f20"/><path d="M91.168,29.417c.96191,0,1.25879-1.44287,1.25879-1.44287,0,.11084.03711.25879.03711.40674,0,.99951-.51856,2.73828-3.92285,2.73828-3.36719,0-3.81153-2.92285-3.84864-4.07031V19.8335c0-3.9961-.81347-8.21436-3.40332-8.21436H81.0293c-1.99805.22168-3.66309,4.06982-3.66309,8.21436v8.51074a4.54709,4.54709,0,0,0,1.14746,2.7749H70.55762a2.0157,2.0157,0,0,0,1.14746-1.8501V12.877a1.17388,1.17388,0,0,0-.333-.85107,1.24831,1.24831,0,0,0-.81445-.333A31.41142,31.41142,0,0,0,77.3291,8.62158h.03711v6.8086c1.03613-3.95948,3.4043-7.06739,6.2168-7.06739,3.7373,0,6.77148,5.32813,6.77148,11.54492V27.419c0,.88818.03711,1.813.51758,1.96142A.82471.82471,0,0,0,91.168,29.417Z" fill="#231f20"/><path d="M92.83105,31.11914a2.01569,2.01569,0,0,0,1.14747-1.8501V12.877a1.35032,1.35032,0,0,0-.333-.85107,1.33177,1.33177,0,0,0-.81446-.333,32.489,32.489,0,0,0,6.77149-3.07129V28.34424a4.38282,4.38282,0,0,0,1.18457,2.7749ZM93.97852,5.10645a2.812,2.812,0,1,1,5.624,0,2.81225,2.81225,0,1,1-5.624,0Z" fill="#231f20"/><path d="M108.85254,8.62158h2.10937v.59229h-2.10937v17.687c0,.999.03711,2.331.62891,2.51611a.72441.72441,0,0,0,.25976.03711c.96192,0,1.2207-1.44287,1.2207-1.44287,0,.11084.03711.22168.03711.36963,0,1.03613-.51855,2.77539-3.92285,2.77539-3.36719,0-3.81054-2.92334-3.84765-4.10742V9.21387h-1.51758V8.62158c4.3291-.73974,7.1416-6.29053,7.1416-6.29053Z" fill="#231f20"/><path d="M119.02734,21.35059a4.42328,4.42328,0,0,0-.85156,2.59033,4.17163,4.17163,0,0,0,.25879,1.48c.81445,2.25732,2.14648,4.21826,4.21875,4.21826,3.1084,0,5.91992-3.03418,5.91992-3.03418a8.88264,8.88264,0,0,1-7.54785,4.73633c-5.14355,0-9.28809-5.14356-9.28809-11.50781,0-6.32764,4.14454-11.47071,9.28809-11.47071,4.18066,0,6.06836,1.96094,6.95606,3.4043a5.15906,5.15906,0,0,1,.70312,2.40479,2.95379,2.95379,0,0,1-.2959,1.36914C126.5752,19.24121,121.72852,17.76123,119.02734,21.35059Zm2.44239-3.1084A5.4852,5.4852,0,0,0,123.874,13.728a5.36165,5.36165,0,0,0-.22168-1.51709v-.07422c-.666-1.99805-1.59082-3.21924-2.62695-3.21924-1.99805,0-3.66309,4.92139-3.66309,10.95313a17.42417,17.42417,0,0,0,.2959,2.66406A10.88613,10.88613,0,0,1,121.46973,18.24219Z" fill="#231f20"/></g></g></svg>