<svg xmlns="http://www.w3.org/2000/svg" xmlns:xlink="http://www.w3.org/1999/xlink" viewBox="0 0 40 43.33946"><defs><linearGradient id="linear-gradient" x1="17.06935" y1="33.1706" x2="14.71231" y2="25.51021" gradientUnits="userSpaceOnUse"><stop offset="0" stop-color="#fff"/><stop offset="1" stop-color="#a7a9ac"/></linearGradient><linearGradient id="linear-gradient-2" x1="11.11087" y1="29.64271" x2="17.62413" y2="23.12945" gradientUnits="userSpaceOnUse"><stop offset="0" stop-color="#231f20"/><stop offset="1" stop-color="#f1f2f2"/></linearGradient><linearGradient id="linear-gradient-3" x1="9.58177" y1="27.51709" x2="24.22609" y2="12.87277" gradientUnits="userSpaceOnUse"><stop offset="0" stop-color="#fff"/><stop offset="0.24989" stop-color="#fcfcfc"/><stop offset="0.44523" stop-color="#f2f2f3"/><stop offset="0.62202" stop-color="#e1e2e3"/><stop offset="0.78789" stop-color="#cacbcd"/><stop offset="0.94483" stop-color="#acaeb1"/><stop offset="0.96848" stop-color="#a7a9ac"/></linearGradient><linearGradient id="linear-gradient-4" x1="15.25932" y1="21.83955" x2="24.70026" y2="12.39861" gradientUnits="userSpaceOnUse"><stop offset="0" stop-color="#231f20"/><stop offset="1" stop-color="#fff"/></linearGradient></defs><g style="isolation:isolate"><g id="Layer_2" data-name="Layer 2"><g id="Layer_1-2" data-name="Layer 1"><rect width="40" height="43.33946" rx="8" fill="#231f20"/><path d="M12,34.24061h0V23.825h7.59236v2.8233A7.59234,7.59234,0,0,1,12,34.24061Z" fill="url(#linear-gradient)"/><path d="M19.59236,26.08983V23.825H12v7.18471S12.83689,26.27535,19.59236,26.08983Z" opacity="0.47" fill="url(#linear-gradient-2)" style="mix-blend-mode:multiply"/><path d="M20,9.09885a8,8,0,0,0-8,8V31.0097s.86625-5.91083,8-5.91083a8,8,0,0,0,0-16Z" fill="url(#linear-gradient-3)"/><path d="M20,9.09885a7.9979,7.9979,0,0,0-7.05091,4.21889,7.66573,7.66573,0,0,1,10.832,10.832A8.00056,8.00056,0,0,0,20,9.09885Z" fill="url(#linear-gradient-4)"/></g></g></g></svg>